<svg width="412" height="350" viewBox="0 0 412 350" fill="none" xmlns="http://www.w3.org/2000/svg">
<path d="M431 307.575H-19V307.809H431V307.575Z" fill="#EBEBEB"/>
<path d="M385.91 322.69H356.102V322.925H385.91V322.69Z" fill="#EBEBEB"/>
<path d="M279.098 325.246H271.277V325.481H279.098V325.246Z" fill="#EBEBEB"/>
<path d="M355.202 313.972H337.931V314.207H355.202V313.972Z" fill="#EBEBEB"/>
<path d="M67.0851 315.551H28.2141V315.785H67.0851V315.551Z" fill="#EBEBEB"/>
<path d="M80.8009 315.551H75.1039V315.785H80.8009V315.551Z" fill="#EBEBEB"/>
<path d="M183.635 319.515H99.3231V319.75H183.635V319.515Z" fill="#EBEBEB"/>
<path d="M194.3 265.675H20.519C19.1576 265.673 17.8528 265.107 16.891 264.101C15.9292 263.095 15.389 261.732 15.389 260.311V5.31726C15.4008 3.90436 15.9463 2.55339 16.9068 1.55781C17.8673 0.562219 19.1654 0.00242038 20.519 0H194.3C195.663 0 196.97 0.565159 197.934 1.57115C198.898 2.57714 199.439 3.94155 199.439 5.36424V260.311C199.439 261.734 198.898 263.098 197.934 264.104C196.97 265.11 195.663 265.675 194.3 265.675ZM20.519 0.18789C19.2173 0.190379 17.9697 0.73189 17.0501 1.69356C16.1305 2.65524 15.614 3.9585 15.614 5.31726V260.311C15.614 261.67 16.1305 262.973 17.0501 263.935C17.9697 264.896 19.2173 265.438 20.519 265.44H194.3C195.603 265.438 196.851 264.897 197.772 263.935C198.693 262.974 199.212 261.671 199.214 260.311V5.31726C199.212 3.95763 198.693 2.6544 197.772 1.69299C196.851 0.731584 195.603 0.190373 194.3 0.18789H20.519Z" fill="#EBEBEB"/>
<path d="M388.979 265.675H215.189C213.827 265.673 212.521 265.107 211.558 264.101C210.595 263.096 210.052 261.733 210.05 260.311V5.31726C210.064 3.9035 210.612 2.55255 211.574 1.55722C212.536 0.561891 213.835 0.00239398 215.189 0H388.979C390.331 0.00488934 391.627 0.565781 392.585 1.5611C393.544 2.55643 394.088 3.90598 394.1 5.31726V260.311C394.1 261.731 393.561 263.092 392.601 264.098C391.641 265.103 390.339 265.67 388.979 265.675ZM215.189 0.18789C213.886 0.190373 212.638 0.731584 211.717 1.69299C210.796 2.6544 210.277 3.95763 210.275 5.31726V260.311C210.277 261.671 210.796 262.974 211.717 263.935C212.638 264.897 213.886 265.438 215.189 265.44H388.979C390.282 265.438 391.53 264.897 392.451 263.935C393.372 262.974 393.891 261.671 393.893 260.311V5.31726C393.891 3.95763 393.372 2.6544 392.451 1.69299C391.53 0.731584 390.282 0.190373 388.979 0.18789H215.189Z" fill="#EBEBEB"/>
<path d="M378.674 306.382V260.048H358.19V217.087H355.301V241.719H347.417V234.908H333.242V211.328H330.614V182.506H328.508V210.802H323.522V252.72H314.063V210.802H296.999V246.248H279.08V203.287H276.191V227.91H268.307V221.099H254.132V197.518H251.504V168.706H249.398V197.002H244.412V238.91H234.962V197.002H217.889V237.548H206.378V213.968H203.75V185.146H201.653V213.442H196.658V255.36H187.208V213.442H170.135V255.36H161.729V260.048H147.014V217.087H144.125V241.719H136.241V234.908H122.066V211.328H119.438V182.506H117.332V210.802H112.76V208.444H95.687V210.802H86.228V208.444H81.242V180.148H79.145V208.97H76.517V232.541H62.333V239.352H54.458V214.729H51.569V257.69H31.085V306.382H378.674Z" fill="#EBEBEB"/>
<path d="M114.679 90.8089C127.44 85.2911 133.501 70.0192 128.215 56.6981C122.928 43.3771 108.298 37.0513 95.5361 42.569C82.7744 48.0868 76.7142 63.3587 82.0003 76.6797C87.2863 90.0008 101.917 96.3266 114.679 90.8089Z" fill="#FAFAFA"/>
<path d="M92.1409 66.4001C92.1396 65.6929 91.9803 64.9958 91.6757 64.3641C91.371 63.7324 90.9294 63.1836 90.3859 62.7613C89.8424 62.339 89.2121 62.0549 88.5449 61.9315C87.8778 61.8081 87.1923 61.8489 86.5429 62.0505C86.7372 60.6851 86.6468 59.292 86.2781 57.9664C85.9093 56.6408 85.2707 55.4139 84.406 54.3695C83.5414 53.3252 82.4709 52.4879 81.2678 51.9149C80.0647 51.3419 78.7573 51.0468 77.4349 51.0496C76.867 51.0486 76.3003 51.1052 75.7429 51.2187C74.8379 49.663 73.4732 48.4563 71.8544 47.7803C70.2355 47.1042 68.4501 46.9953 66.7668 47.4701C65.0835 47.9448 63.5936 48.9775 62.5212 50.4126C61.4489 51.8478 60.8522 53.6077 60.8209 55.4274H60.6859C58.719 55.4274 56.8328 56.243 55.442 57.6947C54.0512 59.1464 53.2699 61.1154 53.2699 63.1684C53.2699 65.2215 54.0512 67.1905 55.442 68.6422C56.8328 70.0939 58.719 70.9095 60.6859 70.9095H87.9109C89.0395 70.8801 90.1126 70.3927 90.9025 69.5508C91.6923 68.7088 92.1366 67.5785 92.1409 66.4001Z" fill="#F0F0F0"/>
<path d="M366.002 129.277C366.001 128.57 365.841 127.873 365.537 127.241C365.232 126.609 364.79 126.06 364.247 125.638C363.703 125.216 363.073 124.932 362.406 124.808C361.739 124.685 361.053 124.726 360.404 124.927C360.598 123.562 360.508 122.169 360.139 120.843C359.77 119.518 359.132 118.291 358.267 117.246C357.402 116.202 356.332 115.365 355.129 114.792C353.926 114.219 352.618 113.924 351.296 113.926C350.726 113.927 350.156 113.981 349.595 114.086C348.681 112.539 347.311 111.342 345.691 110.677C344.07 110.011 342.287 109.912 340.608 110.395C338.929 110.878 337.445 111.917 336.38 113.355C335.315 114.793 334.725 116.552 334.7 118.37H334.565C332.598 118.37 330.712 119.186 329.321 120.637C327.93 122.089 327.149 124.058 327.149 126.111C327.149 128.164 327.93 130.133 329.321 131.585C330.712 133.037 332.598 133.852 334.565 133.852H361.79C362.926 133.818 364.004 133.319 364.792 132.463C365.58 131.608 366.014 130.464 366.002 129.277Z" fill="#F0F0F0"/>
<path d="M237.239 60.3593C237.235 59.2383 237.483 58.132 237.963 57.1294C238.443 56.1268 239.142 55.2559 240.004 54.5869C240.865 53.9179 241.865 53.4694 242.923 53.2775C243.981 53.0857 245.068 53.1559 246.095 53.4825C245.994 52.7513 245.943 52.0136 245.942 51.2748C245.939 49.0407 246.409 46.8335 247.318 44.8106C248.226 42.7878 249.551 40.9992 251.198 39.5725C252.845 38.1458 254.774 37.1161 256.846 36.5569C258.918 35.9977 261.083 35.9229 263.186 36.3376C264.619 33.8704 266.783 31.9573 269.35 30.8876C271.917 29.8179 274.748 29.6497 277.415 30.4085C280.082 31.1673 282.439 32.8119 284.131 35.0934C285.823 37.375 286.758 40.1696 286.793 43.0547H287C290.111 43.0547 293.095 44.3448 295.295 46.6413C297.496 48.9378 298.732 52.0526 298.732 55.3003C298.732 58.5481 297.496 61.6628 295.295 63.9593C293.095 66.2558 290.111 67.546 287 67.546H243.926C242.134 67.4946 240.432 66.7145 239.183 65.3719C237.933 64.0294 237.236 62.2307 237.239 60.3593Z" fill="#F0F0F0"/>
<path d="M110.132 138.54C110.13 137.192 110.431 135.863 111.01 134.659C111.589 133.454 112.43 132.408 113.465 131.604C114.501 130.799 115.703 130.259 116.974 130.026C118.246 129.794 119.552 129.875 120.788 130.263C120.661 129.387 120.598 128.501 120.599 127.614C120.599 122.761 122.446 118.106 125.734 114.674C129.022 111.242 133.481 109.314 138.131 109.314C139.212 109.316 140.29 109.42 141.353 109.624C143.07 106.641 145.674 104.326 148.768 103.03C151.861 101.734 155.276 101.528 158.492 102.443C161.708 103.359 164.55 105.346 166.585 108.102C168.62 110.858 169.737 114.233 169.766 117.712H170C171.884 117.663 173.758 118.007 175.512 118.725C177.267 119.444 178.865 120.521 180.215 121.894C181.564 123.267 182.636 124.909 183.368 126.721C184.1 128.534 184.477 130.481 184.477 132.448C184.477 134.415 184.1 136.362 183.368 138.174C182.636 139.987 181.564 141.628 180.215 143.001C178.865 144.374 177.267 145.452 175.512 146.17C173.758 146.888 171.884 147.232 170 147.183H118.16C116.007 147.117 113.964 146.177 112.465 144.563C110.966 142.949 110.129 140.788 110.132 138.54Z" fill="#F0F0F0"/>
<path d="M146.69 79.9937C146.69 79.2463 146.406 78.5294 145.899 78.0009C145.393 77.4724 144.706 77.1754 143.99 77.1754C143.727 77.1724 143.466 77.2136 143.216 77.2975C143.255 77.0081 143.276 76.7162 143.279 76.4239C143.279 74.8392 142.676 73.3195 141.602 72.199C140.529 71.0785 139.073 70.449 137.555 70.449C137.202 70.4499 136.849 70.4845 136.502 70.5523C135.938 69.584 135.087 68.8335 134.079 68.414C133.07 67.9945 131.958 67.9288 130.911 68.2268C129.863 68.5248 128.937 69.1704 128.272 70.0661C127.606 70.9617 127.238 72.059 127.223 73.1922H127.142C125.92 73.1922 124.748 73.6989 123.884 74.601C123.019 75.503 122.534 76.7264 122.534 78.0021C122.534 79.2778 123.019 80.5012 123.884 81.4033C124.748 82.3053 125.92 82.8121 127.142 82.8121H144.071C144.773 82.7901 145.439 82.4835 145.928 81.9573C146.417 81.4311 146.69 80.7268 146.69 79.9937Z" fill="#F0F0F0"/>
<path d="M48.248 165.671C48.248 164.924 48.5324 164.207 49.0388 163.679C49.5451 163.15 50.2319 162.853 50.948 162.853C51.2127 162.852 51.4763 162.89 51.731 162.966C51.687 162.68 51.6659 162.391 51.668 162.102C51.668 161.317 51.816 160.54 52.1037 159.815C52.3914 159.09 52.813 158.432 53.3445 157.877C53.876 157.322 54.507 156.882 55.2015 156.582C55.896 156.281 56.6403 156.127 57.392 156.127C57.7453 156.128 58.0977 156.162 58.445 156.23C59.0091 155.262 59.8597 154.511 60.8683 154.092C61.8769 153.672 62.9888 153.607 64.0363 153.905C65.0839 154.203 66.0101 154.848 66.6753 155.744C67.3405 156.639 67.7086 157.737 67.724 158.87H67.805C69.0271 158.87 70.1992 159.377 71.0633 160.279C71.9275 161.181 72.413 162.404 72.413 163.68C72.413 164.956 71.9275 166.179 71.0633 167.081C70.1992 167.983 69.0271 168.49 67.805 168.49H50.876C50.1725 168.47 49.504 168.165 49.0132 167.638C48.5223 167.112 48.2477 166.406 48.248 165.671Z" fill="#F0F0F0"/>
<path d="M301.589 174.878C301.589 174.13 301.873 173.414 302.38 172.885C302.886 172.357 303.573 172.06 304.289 172.06C304.554 172.059 304.817 172.097 305.072 172.172C305.028 171.887 305.007 171.597 305.009 171.308C305.009 169.723 305.612 168.204 306.686 167.083C307.759 165.963 309.215 165.333 310.733 165.333C311.086 165.334 311.439 165.369 311.786 165.436C312.35 164.468 313.201 163.718 314.209 163.298C315.218 162.879 316.33 162.813 317.377 163.111C318.425 163.409 319.351 164.055 320.016 164.95C320.682 165.846 321.05 166.943 321.065 168.076H321.146C322.368 168.076 323.54 168.583 324.404 169.485C325.269 170.387 325.754 171.611 325.754 172.886C325.754 174.162 325.269 175.385 324.404 176.287C323.54 177.189 322.368 177.696 321.146 177.696H304.217C303.513 177.677 302.845 177.371 302.354 176.845C301.863 176.318 301.589 175.613 301.589 174.878Z" fill="#F0F0F0"/>
<path d="M206 350C302.374 350 380.501 345.239 380.501 339.365C380.501 333.492 302.374 328.731 206 328.731C109.626 328.731 31.4991 333.492 31.4991 339.365C31.4991 345.239 109.626 350 206 350Z" fill="#F5F5F5"/>
<path d="M330.92 62.0318L292.445 123.18L290.753 125.877L287.405 127.492L168.317 185.259L180.08 227.337L182.771 236.957L173.447 244.998L93.1041 326.495H26.6211L146.825 222.292L139.544 180.919L137.564 169.655L146.87 165.183L273.788 104.185L315.125 50.8054L304.037 48.5132L338.894 33.4163L337.103 72.7697L330.92 62.0318Z" fill="#263238"/>
<path opacity="0.6" d="M330.92 62.0318L292.445 123.18L290.753 125.877L287.405 127.492L168.317 185.259L180.08 227.337L182.771 236.957L173.447 244.998L93.1041 326.495H26.6211L146.825 222.292L139.544 180.919L137.564 169.655L146.87 165.183L273.788 104.185L315.125 50.8054L304.037 48.5132L338.894 33.4163L337.103 72.7697L330.92 62.0318Z" fill="#FAFAFA"/>
<path d="M310.805 322.69H247.085C246.459 322.69 245.951 323.22 245.951 323.874V339.036C245.951 339.69 246.459 340.22 247.085 340.22H310.805C311.431 340.22 311.939 339.69 311.939 339.036V323.874C311.939 323.22 311.431 322.69 310.805 322.69Z" fill="#00ADB5"/>
<path opacity="0.2" d="M251.513 323.705H248.903V339.365H251.513V323.705Z" fill="black"/>
<path opacity="0.2" d="M257.444 323.63H255.545V339.29H257.444V323.63Z" fill="black"/>
<path opacity="0.2" d="M262.907 323.705H261.953V339.365H262.907V323.705Z" fill="black"/>
<path opacity="0.2" d="M270.269 323.63H269.792V339.29H270.269V323.63Z" fill="black"/>
<path opacity="0.2" d="M306.377 339.29H308.987V323.629H306.377V339.29Z" fill="black"/>
<path opacity="0.2" d="M300.446 339.365H302.345V323.704H300.446V339.365Z" fill="black"/>
<path opacity="0.2" d="M294.992 339.29H295.937V323.629H294.992V339.29Z" fill="black"/>
<path opacity="0.2" d="M287.621 339.365H288.098V323.704H287.621V339.365Z" fill="black"/>
<path opacity="0.2" d="M278.828 339.365H279.062V323.704H278.828V339.365Z" fill="black"/>
<path opacity="0.2" d="M310.175 325.358H247.85C247.64 325.358 247.438 325.271 247.29 325.116C247.141 324.961 247.058 324.751 247.058 324.531C247.06 324.313 247.145 324.104 247.293 323.95C247.441 323.795 247.641 323.707 247.85 323.705H310.175C310.385 323.705 310.586 323.792 310.735 323.947C310.884 324.102 310.967 324.312 310.967 324.531C310.968 324.64 310.949 324.748 310.909 324.849C310.87 324.95 310.812 325.042 310.738 325.119C310.664 325.196 310.576 325.257 310.48 325.298C310.383 325.339 310.279 325.359 310.175 325.358Z" fill="white"/>
<path d="M312.605 305.207H248.885C248.259 305.207 247.751 305.737 247.751 306.39V321.553C247.751 322.207 248.259 322.737 248.885 322.737H312.605C313.231 322.737 313.739 322.207 313.739 321.553V306.39C313.739 305.737 313.231 305.207 312.605 305.207Z" fill="#00ADB5"/>
<path opacity="0.2" d="M253.313 306.222H250.703V321.882H253.313V306.222Z" fill="black"/>
<path opacity="0.2" d="M259.253 306.146H257.354V321.807H259.253V306.146Z" fill="black"/>
<path opacity="0.2" d="M264.707 306.222H263.762V321.882H264.707V306.222Z" fill="black"/>
<path opacity="0.2" d="M272.069 306.146H271.592V321.807H272.069V306.146Z" fill="black"/>
<path opacity="0.2" d="M308.186 321.798H310.796V306.137H308.186V321.798Z" fill="black"/>
<path opacity="0.2" d="M302.246 321.873H304.145V306.212H302.246V321.873Z" fill="black"/>
<path opacity="0.2" d="M296.783 321.798H297.737V306.137H296.783V321.798Z" fill="black"/>
<path opacity="0.2" d="M289.421 321.873H289.898V306.212H289.421V321.873Z" fill="black"/>
<path opacity="0.2" d="M280.628 321.873H280.862V306.212H280.628V321.873Z" fill="black"/>
<path opacity="0.2" d="M311.975 307.875H249.65C249.441 307.873 249.24 307.785 249.092 307.63C248.944 307.476 248.86 307.267 248.858 307.048C248.858 306.829 248.941 306.619 249.09 306.464C249.238 306.309 249.44 306.222 249.65 306.222H311.975C312.079 306.22 312.183 306.241 312.279 306.282C312.376 306.323 312.464 306.384 312.538 306.461C312.611 306.538 312.67 306.63 312.709 306.731C312.748 306.831 312.768 306.94 312.767 307.048C312.767 307.268 312.683 307.478 312.535 307.633C312.386 307.788 312.185 307.875 311.975 307.875Z" fill="white"/>
<path d="M312.605 287.724H248.885C248.259 287.724 247.751 288.254 247.751 288.907V304.07C247.751 304.724 248.259 305.254 248.885 305.254H312.605C313.231 305.254 313.739 304.724 313.739 304.07V288.907C313.739 288.254 313.231 287.724 312.605 287.724Z" fill="#00ADB5"/>
<path opacity="0.2" d="M253.313 288.729H250.703V304.389H253.313V288.729Z" fill="black"/>
<path opacity="0.2" d="M259.253 288.654H257.354V304.314H259.253V288.654Z" fill="black"/>
<path opacity="0.2" d="M264.707 288.729H263.762V304.389H264.707V288.729Z" fill="black"/>
<path opacity="0.2" d="M272.069 288.654H271.592V304.314H272.069V288.654Z" fill="black"/>
<path opacity="0.2" d="M308.186 304.314H310.796V288.654H308.186V304.314Z" fill="black"/>
<path opacity="0.2" d="M302.246 304.39H304.145V288.729H302.246V304.39Z" fill="black"/>
<path opacity="0.2" d="M296.783 304.314H297.737V288.654H296.783V304.314Z" fill="black"/>
<path opacity="0.2" d="M289.421 304.39H289.898V288.729H289.421V304.39Z" fill="black"/>
<path opacity="0.2" d="M280.628 304.39H280.862V288.729H280.628V304.39Z" fill="black"/>
<path opacity="0.2" d="M311.975 290.382H249.65C249.44 290.382 249.238 290.295 249.09 290.14C248.941 289.985 248.858 289.775 248.858 289.556C248.86 289.337 248.944 289.128 249.092 288.974C249.24 288.819 249.441 288.731 249.65 288.729H311.975C312.185 288.729 312.386 288.816 312.535 288.971C312.683 289.126 312.767 289.336 312.767 289.556C312.768 289.665 312.748 289.773 312.709 289.873C312.67 289.974 312.611 290.066 312.538 290.143C312.464 290.22 312.376 290.281 312.279 290.322C312.183 290.363 312.079 290.384 311.975 290.382Z" fill="white"/>
<path d="M310.805 270.231H247.085C246.459 270.231 245.951 270.761 245.951 271.415V286.577C245.951 287.231 246.459 287.761 247.085 287.761H310.805C311.431 287.761 311.939 287.231 311.939 286.577V271.415C311.939 270.761 311.431 270.231 310.805 270.231Z" fill="#00ADB5"/>
<path opacity="0.2" d="M251.513 271.246H248.903V286.906H251.513V271.246Z" fill="black"/>
<path opacity="0.2" d="M257.444 271.171H255.545V286.831H257.444V271.171Z" fill="black"/>
<path opacity="0.2" d="M262.907 271.246H261.953V286.906H262.907V271.246Z" fill="black"/>
<path opacity="0.2" d="M270.269 271.171H269.792V286.831H270.269V271.171Z" fill="black"/>
<path opacity="0.2" d="M306.377 286.822H308.987V271.161H306.377V286.822Z" fill="black"/>
<path opacity="0.2" d="M300.446 286.897H302.345V271.237H300.446V286.897Z" fill="black"/>
<path opacity="0.2" d="M294.992 286.822H295.937V271.161H294.992V286.822Z" fill="black"/>
<path opacity="0.2" d="M287.621 286.897H288.098V271.237H287.621V286.897Z" fill="black"/>
<path opacity="0.2" d="M278.828 286.897H279.062V271.237H278.828V286.897Z" fill="black"/>
<path opacity="0.2" d="M310.175 272.899H247.85C247.641 272.897 247.441 272.809 247.293 272.654C247.145 272.5 247.06 272.291 247.058 272.073C247.058 271.853 247.141 271.643 247.29 271.488C247.438 271.333 247.64 271.246 247.85 271.246H310.175C310.279 271.245 310.383 271.265 310.48 271.306C310.576 271.347 310.664 271.408 310.738 271.485C310.812 271.562 310.87 271.654 310.909 271.755C310.949 271.856 310.968 271.964 310.967 272.073C310.967 272.292 310.884 272.502 310.735 272.657C310.586 272.812 310.385 272.899 310.175 272.899Z" fill="white"/>
<path d="M308.105 252.748H244.385C243.759 252.748 243.251 253.278 243.251 253.932V269.094C243.251 269.748 243.759 270.278 244.385 270.278H308.105C308.731 270.278 309.239 269.748 309.239 269.094V253.932C309.239 253.278 308.731 252.748 308.105 252.748Z" fill="#00ADB5"/>
<path opacity="0.2" d="M248.813 253.753H246.203V269.414H248.813V253.753Z" fill="black"/>
<path opacity="0.2" d="M254.744 253.678H252.845V269.339H254.744V253.678Z" fill="black"/>
<path opacity="0.2" d="M260.198 253.753H259.253V269.414H260.198V253.753Z" fill="black"/>
<path opacity="0.2" d="M267.569 253.678H267.092V269.339H267.569V253.678Z" fill="black"/>
<path opacity="0.2" d="M303.677 269.339H306.287V253.678H303.677V269.339Z" fill="black"/>
<path opacity="0.2" d="M297.737 269.414H299.636V253.753H297.737V269.414Z" fill="black"/>
<path opacity="0.2" d="M292.292 269.339H293.237V253.678H292.292V269.339Z" fill="black"/>
<path opacity="0.2" d="M284.93 269.414H285.407V253.753H284.93V269.414Z" fill="black"/>
<path opacity="0.2" d="M276.128 269.414H276.362V253.753H276.128V269.414Z" fill="black"/>
<path opacity="0.2" d="M307.475 255.407H245.15C245.046 255.408 244.942 255.387 244.845 255.346C244.749 255.305 244.661 255.244 244.587 255.167C244.513 255.09 244.455 254.999 244.416 254.898C244.376 254.797 244.357 254.689 244.358 254.58C244.358 254.361 244.441 254.15 244.59 253.995C244.738 253.84 244.94 253.753 245.15 253.753H307.475C307.685 253.753 307.886 253.84 308.035 253.995C308.184 254.15 308.267 254.361 308.267 254.58C308.268 254.689 308.249 254.797 308.209 254.898C308.17 254.999 308.111 255.09 308.038 255.167C307.964 255.244 307.876 255.305 307.779 255.346C307.683 255.387 307.579 255.408 307.475 255.407Z" fill="white"/>
<path d="M310.805 235.256H247.085C246.459 235.256 245.951 235.786 245.951 236.44V251.602C245.951 252.256 246.459 252.786 247.085 252.786H310.805C311.431 252.786 311.939 252.256 311.939 251.602V236.44C311.939 235.786 311.431 235.256 310.805 235.256Z" fill="#00ADB5"/>
<path opacity="0.2" d="M251.513 236.27H248.903V251.931H251.513V236.27Z" fill="black"/>
<path opacity="0.2" d="M257.444 236.195H255.545V251.856H257.444V236.195Z" fill="black"/>
<path opacity="0.2" d="M262.907 236.27H261.953V251.931H262.907V236.27Z" fill="black"/>
<path opacity="0.2" d="M270.269 236.195H269.792V251.856H270.269V236.195Z" fill="black"/>
<path opacity="0.2" d="M306.377 251.846H308.987V236.186H306.377V251.846Z" fill="black"/>
<path opacity="0.2" d="M300.446 251.921H302.345V236.261H300.446V251.921Z" fill="black"/>
<path opacity="0.2" d="M294.992 251.846H295.937V236.186H294.992V251.846Z" fill="black"/>
<path opacity="0.2" d="M287.621 251.921H288.098V236.261H287.621V251.921Z" fill="black"/>
<path opacity="0.2" d="M278.828 251.921H279.062V236.261H278.828V251.921Z" fill="black"/>
<path opacity="0.2" d="M310.175 237.924H247.85C247.64 237.924 247.438 237.837 247.29 237.682C247.141 237.527 247.058 237.316 247.058 237.097C247.058 236.878 247.141 236.667 247.29 236.512C247.438 236.357 247.64 236.27 247.85 236.27H310.175C310.279 236.269 310.383 236.29 310.48 236.331C310.576 236.372 310.664 236.433 310.738 236.51C310.812 236.587 310.87 236.678 310.909 236.779C310.949 236.88 310.968 236.988 310.967 237.097C310.968 237.206 310.949 237.314 310.909 237.415C310.87 237.516 310.812 237.607 310.738 237.684C310.664 237.761 310.576 237.822 310.48 237.863C310.383 237.904 310.279 237.925 310.175 237.924Z" fill="white"/>
<path d="M310.805 217.773H247.085C246.459 217.773 245.951 218.303 245.951 218.957V234.119C245.951 234.773 246.459 235.303 247.085 235.303H310.805C311.431 235.303 311.939 234.773 311.939 234.119V218.957C311.939 218.303 311.431 217.773 310.805 217.773Z" fill="#00ADB5"/>
<path opacity="0.2" d="M251.513 218.778H248.903V234.438H251.513V218.778Z" fill="black"/>
<path opacity="0.2" d="M257.444 218.703H255.545V234.363H257.444V218.703Z" fill="black"/>
<path opacity="0.2" d="M262.907 218.778H261.953V234.438H262.907V218.778Z" fill="black"/>
<path opacity="0.2" d="M270.269 218.703H269.792V234.363H270.269V218.703Z" fill="black"/>
<path opacity="0.2" d="M306.377 234.363H308.987V218.703H306.377V234.363Z" fill="black"/>
<path opacity="0.2" d="M300.446 234.438H302.345V218.778H300.446V234.438Z" fill="black"/>
<path opacity="0.2" d="M294.992 234.363H295.937V218.703H294.992V234.363Z" fill="black"/>
<path opacity="0.2" d="M287.621 234.438H288.098V218.778H287.621V234.438Z" fill="black"/>
<path opacity="0.2" d="M278.828 234.438H279.062V218.778H278.828V234.438Z" fill="black"/>
<path opacity="0.2" d="M310.175 220.44H247.85C247.639 220.438 247.438 220.349 247.289 220.192C247.141 220.036 247.058 219.824 247.058 219.604C247.06 219.386 247.145 219.177 247.293 219.022C247.441 218.868 247.641 218.78 247.85 218.778H310.175C310.385 218.778 310.586 218.865 310.735 219.02C310.884 219.175 310.967 219.385 310.967 219.604C310.968 219.714 310.949 219.822 310.909 219.924C310.87 220.025 310.812 220.117 310.738 220.195C310.665 220.273 310.577 220.335 310.48 220.377C310.383 220.419 310.28 220.44 310.175 220.44Z" fill="white"/>
<path d="M313.505 200.28H249.785C249.159 200.28 248.651 200.81 248.651 201.464V216.627C248.651 217.28 249.159 217.81 249.785 217.81H313.505C314.131 217.81 314.639 217.28 314.639 216.627V201.464C314.639 200.81 314.131 200.28 313.505 200.28Z" fill="#00ADB5"/>
<path opacity="0.2" d="M254.213 201.295H251.603V216.955H254.213V201.295Z" fill="black"/>
<path opacity="0.2" d="M260.153 201.22H258.254V216.88H260.153V201.22Z" fill="black"/>
<path opacity="0.2" d="M265.616 201.295H264.662V216.955H265.616V201.295Z" fill="black"/>
<path opacity="0.2" d="M272.969 201.22H272.492V216.88H272.969V201.22Z" fill="black"/>
<path opacity="0.2" d="M309.086 216.871H311.696V201.21H309.086V216.871Z" fill="black"/>
<path opacity="0.2" d="M303.146 216.955H305.045V201.295H303.146V216.955Z" fill="black"/>
<path opacity="0.2" d="M297.692 216.871H298.637V201.21H297.692V216.871Z" fill="black"/>
<path opacity="0.2" d="M290.321 216.955H290.798V201.295H290.321V216.955Z" fill="black"/>
<path opacity="0.2" d="M281.537 216.955H281.771V201.295H281.537V216.955Z" fill="black"/>
<path opacity="0.2" d="M312.875 202.92H250.559C250.454 202.921 250.35 202.901 250.253 202.86C250.156 202.819 250.068 202.758 249.993 202.681C249.919 202.604 249.859 202.513 249.819 202.412C249.779 202.311 249.758 202.203 249.758 202.093C249.758 201.984 249.779 201.876 249.819 201.775C249.859 201.674 249.919 201.582 249.993 201.505C250.068 201.428 250.156 201.368 250.253 201.327C250.35 201.286 250.454 201.265 250.559 201.267H312.875C312.98 201.265 313.084 201.286 313.181 201.327C313.278 201.368 313.366 201.428 313.441 201.505C313.515 201.582 313.574 201.674 313.615 201.775C313.655 201.876 313.676 201.984 313.676 202.093C313.676 202.203 313.655 202.311 313.615 202.412C313.574 202.513 313.515 202.604 313.441 202.681C313.366 202.758 313.278 202.819 313.181 202.86C313.084 202.901 312.98 202.921 312.875 202.92Z" fill="white"/>
<path d="M309.005 182.797H245.285C244.659 182.797 244.151 183.327 244.151 183.981V199.144C244.151 199.797 244.659 200.327 245.285 200.327H309.005C309.631 200.327 310.139 199.797 310.139 199.144V183.981C310.139 183.327 309.631 182.797 309.005 182.797Z" fill="#00ADB5"/>
<path opacity="0.2" d="M249.713 183.812H247.103V199.472H249.713V183.812Z" fill="black"/>
<path opacity="0.2" d="M255.644 183.727H253.745V199.388H255.644V183.727Z" fill="black"/>
<path opacity="0.2" d="M261.098 183.812H260.153V199.472H261.098V183.812Z" fill="black"/>
<path opacity="0.2" d="M268.469 183.727H267.992V199.388H268.469V183.727Z" fill="black"/>
<path opacity="0.2" d="M304.577 199.388H307.187V183.727H304.577V199.388Z" fill="black"/>
<path opacity="0.2" d="M298.637 199.463H300.536V183.802H298.637V199.463Z" fill="black"/>
<path opacity="0.2" d="M293.192 199.388H294.137V183.727H293.192V199.388Z" fill="black"/>
<path opacity="0.2" d="M285.821 199.463H286.298V183.802H285.821V199.463Z" fill="black"/>
<path opacity="0.2" d="M277.028 199.463H277.262V183.802H277.028V199.463Z" fill="black"/>
<path opacity="0.2" d="M308.375 185.465H246.05C245.841 185.463 245.64 185.375 245.492 185.22C245.344 185.066 245.26 184.857 245.258 184.638C245.258 184.419 245.341 184.209 245.49 184.054C245.638 183.899 245.84 183.812 246.05 183.812H308.375C308.479 183.81 308.583 183.831 308.679 183.872C308.776 183.913 308.864 183.974 308.938 184.051C309.011 184.128 309.07 184.22 309.109 184.32C309.148 184.421 309.168 184.529 309.167 184.638C309.167 184.858 309.083 185.068 308.935 185.223C308.786 185.378 308.585 185.465 308.375 185.465Z" fill="white"/>
<path d="M307.205 165.305H243.485C242.859 165.305 242.351 165.835 242.351 166.488V181.651C242.351 182.305 242.859 182.835 243.485 182.835H307.205C307.831 182.835 308.339 182.305 308.339 181.651V166.488C308.339 165.835 307.831 165.305 307.205 165.305Z" fill="#00ADB5"/>
<path opacity="0.2" d="M247.913 166.319H245.303V181.98H247.913V166.319Z" fill="black"/>
<path opacity="0.2" d="M253.844 166.244H251.945V181.905H253.844V166.244Z" fill="black"/>
<path opacity="0.2" d="M259.307 166.319H258.353V181.98H259.307V166.319Z" fill="black"/>
<path opacity="0.2" d="M266.669 166.244H266.192V181.905H266.669V166.244Z" fill="black"/>
<path opacity="0.2" d="M302.777 181.895H305.387V166.235H302.777V181.895Z" fill="black"/>
<path opacity="0.2" d="M296.837 181.98H298.736V166.319H296.837V181.98Z" fill="black"/>
<path opacity="0.2" d="M291.383 181.895H292.328V166.235H291.383V181.895Z" fill="black"/>
<path opacity="0.2" d="M284.03 181.98H284.507V166.319H284.03V181.98Z" fill="black"/>
<path opacity="0.2" d="M275.228 181.98H275.462V166.319H275.228V181.98Z" fill="black"/>
<path opacity="0.2" d="M306.575 167.973H244.25C244.146 167.974 244.042 167.954 243.946 167.912C243.849 167.871 243.761 167.811 243.687 167.733C243.614 167.656 243.555 167.565 243.516 167.464C243.477 167.363 243.457 167.255 243.458 167.146C243.457 167.037 243.477 166.929 243.516 166.828C243.555 166.727 243.614 166.636 243.687 166.559C243.761 166.482 243.849 166.421 243.946 166.38C244.042 166.339 244.146 166.318 244.25 166.319H306.575C306.679 166.318 306.783 166.339 306.88 166.38C306.976 166.421 307.064 166.482 307.138 166.559C307.212 166.636 307.27 166.727 307.309 166.828C307.349 166.929 307.368 167.037 307.367 167.146C307.368 167.255 307.349 167.363 307.309 167.464C307.27 167.565 307.212 167.656 307.138 167.733C307.064 167.811 306.976 167.871 306.88 167.912C306.783 167.954 306.679 167.974 306.575 167.973Z" fill="white"/>
<path d="M229.76 322.69H166.04C165.414 322.69 164.906 323.22 164.906 323.874V339.036C164.906 339.69 165.414 340.22 166.04 340.22H229.76C230.386 340.22 230.894 339.69 230.894 339.036V323.874C230.894 323.22 230.386 322.69 229.76 322.69Z" fill="#00ADB5"/>
<path opacity="0.2" d="M170.459 323.705H167.849V339.365H170.459V323.705Z" fill="black"/>
<path opacity="0.2" d="M176.399 323.63H174.5V339.29H176.399V323.63Z" fill="black"/>
<path opacity="0.2" d="M181.853 323.705H180.908V339.365H181.853V323.705Z" fill="black"/>
<path opacity="0.2" d="M189.215 323.63H188.738V339.29H189.215V323.63Z" fill="black"/>
<path opacity="0.2" d="M225.332 339.29H227.942V323.629H225.332V339.29Z" fill="black"/>
<path opacity="0.2" d="M219.392 339.365H221.291V323.704H219.392V339.365Z" fill="black"/>
<path opacity="0.2" d="M213.938 339.29H214.883V323.629H213.938V339.29Z" fill="black"/>
<path opacity="0.2" d="M206.576 339.365H207.053V323.704H206.576V339.365Z" fill="black"/>
<path opacity="0.2" d="M197.783 339.365H198.017V323.704H197.783V339.365Z" fill="black"/>
<path opacity="0.2" d="M229.13 325.358H166.805C166.701 325.359 166.597 325.339 166.5 325.298C166.404 325.257 166.316 325.196 166.242 325.119C166.168 325.042 166.11 324.95 166.071 324.849C166.031 324.748 166.012 324.64 166.013 324.531C166.013 324.312 166.096 324.102 166.245 323.947C166.393 323.792 166.595 323.705 166.805 323.705H229.13C229.339 323.707 229.539 323.795 229.687 323.95C229.835 324.104 229.92 324.313 229.922 324.531C229.922 324.751 229.839 324.961 229.69 325.116C229.542 325.271 229.34 325.358 229.13 325.358Z" fill="white"/>
<path d="M227.051 305.207H163.331C162.705 305.207 162.197 305.737 162.197 306.39V321.553C162.197 322.207 162.705 322.737 163.331 322.737H227.051C227.677 322.737 228.185 322.207 228.185 321.553V306.39C228.185 305.737 227.677 305.207 227.051 305.207Z" fill="#00ADB5"/>
<path opacity="0.2" d="M167.759 306.222H165.149V321.882H167.759V306.222Z" fill="black"/>
<path opacity="0.2" d="M173.699 306.146H171.8V321.807H173.699V306.146Z" fill="black"/>
<path opacity="0.2" d="M179.153 306.222H178.208V321.882H179.153V306.222Z" fill="black"/>
<path opacity="0.2" d="M186.515 306.146H186.038V321.807H186.515V306.146Z" fill="black"/>
<path opacity="0.2" d="M222.632 321.798H225.242V306.137H222.632V321.798Z" fill="black"/>
<path opacity="0.2" d="M216.692 321.873H218.591V306.212H216.692V321.873Z" fill="black"/>
<path opacity="0.2" d="M211.238 321.798H212.183V306.137H211.238V321.798Z" fill="black"/>
<path opacity="0.2" d="M203.867 321.873H204.344V306.212H203.867V321.873Z" fill="black"/>
<path opacity="0.2" d="M195.074 321.873H195.308V306.212H195.074V321.873Z" fill="black"/>
<path opacity="0.2" d="M226.421 307.875H164.096C163.887 307.873 163.687 307.785 163.539 307.63C163.39 307.476 163.306 307.267 163.304 307.048C163.304 306.829 163.387 306.619 163.536 306.464C163.684 306.309 163.886 306.222 164.096 306.222H226.421C226.525 306.22 226.629 306.241 226.725 306.282C226.822 306.323 226.91 306.384 226.984 306.461C227.057 306.538 227.116 306.63 227.155 306.731C227.195 306.831 227.214 306.94 227.213 307.048C227.213 307.268 227.13 307.478 226.981 307.633C226.832 307.788 226.631 307.875 226.421 307.875Z" fill="white"/>
<path d="M229.76 287.724H166.04C165.414 287.724 164.906 288.254 164.906 288.907V304.07C164.906 304.724 165.414 305.254 166.04 305.254H229.76C230.386 305.254 230.894 304.724 230.894 304.07V288.907C230.894 288.254 230.386 287.724 229.76 287.724Z" fill="#00ADB5"/>
<path opacity="0.2" d="M170.459 288.729H167.849V304.389H170.459V288.729Z" fill="black"/>
<path opacity="0.2" d="M176.399 288.654H174.5V304.314H176.399V288.654Z" fill="black"/>
<path opacity="0.2" d="M181.853 288.729H180.908V304.389H181.853V288.729Z" fill="black"/>
<path opacity="0.2" d="M189.215 288.654H188.738V304.314H189.215V288.654Z" fill="black"/>
<path opacity="0.2" d="M225.332 304.314H227.942V288.654H225.332V304.314Z" fill="black"/>
<path opacity="0.2" d="M219.392 304.39H221.291V288.729H219.392V304.39Z" fill="black"/>
<path opacity="0.2" d="M213.938 304.314H214.883V288.654H213.938V304.314Z" fill="black"/>
<path opacity="0.2" d="M206.576 304.39H207.053V288.729H206.576V304.39Z" fill="black"/>
<path opacity="0.2" d="M197.783 304.39H198.017V288.729H197.783V304.39Z" fill="black"/>
<path opacity="0.2" d="M229.13 290.382H166.805C166.701 290.384 166.597 290.363 166.5 290.322C166.404 290.281 166.316 290.22 166.242 290.143C166.168 290.066 166.11 289.974 166.071 289.873C166.031 289.773 166.012 289.665 166.013 289.556C166.013 289.336 166.096 289.126 166.245 288.971C166.393 288.816 166.595 288.729 166.805 288.729H229.13C229.339 288.731 229.539 288.819 229.687 288.974C229.835 289.128 229.92 289.337 229.922 289.556C229.922 289.775 229.839 289.985 229.69 290.14C229.542 290.295 229.34 290.382 229.13 290.382Z" fill="white"/>
<path d="M227.951 270.231H164.231C163.605 270.231 163.097 270.761 163.097 271.415V286.577C163.097 287.231 163.605 287.761 164.231 287.761H227.951C228.577 287.761 229.085 287.231 229.085 286.577V271.415C229.085 270.761 228.577 270.231 227.951 270.231Z" fill="#00ADB5"/>
<path opacity="0.2" d="M168.659 271.246H166.049V286.906H168.659V271.246Z" fill="black"/>
<path opacity="0.2" d="M174.599 271.171H172.7V286.831H174.599V271.171Z" fill="black"/>
<path opacity="0.2" d="M180.053 271.246H179.108V286.906H180.053V271.246Z" fill="black"/>
<path opacity="0.2" d="M187.415 271.171H186.938V286.831H187.415V271.171Z" fill="black"/>
<path opacity="0.2" d="M223.532 286.822H226.142V271.161H223.532V286.822Z" fill="black"/>
<path opacity="0.2" d="M217.592 286.897H219.491V271.237H217.592V286.897Z" fill="black"/>
<path opacity="0.2" d="M212.129 286.822H213.083V271.161H212.129V286.822Z" fill="black"/>
<path opacity="0.2" d="M204.767 286.897H205.244V271.237H204.767V286.897Z" fill="black"/>
<path opacity="0.2" d="M195.983 286.897H196.217V271.237H195.983V286.897Z" fill="black"/>
<path opacity="0.2" d="M227.321 272.899H165.005C164.794 272.899 164.592 272.813 164.442 272.658C164.292 272.503 164.206 272.293 164.204 272.073C164.204 271.963 164.225 271.855 164.265 271.754C164.306 271.653 164.365 271.562 164.439 271.485C164.514 271.408 164.602 271.347 164.699 271.306C164.796 271.265 164.9 271.245 165.005 271.246H227.321C227.426 271.245 227.53 271.265 227.627 271.306C227.724 271.347 227.812 271.408 227.887 271.485C227.961 271.562 228.021 271.653 228.061 271.754C228.101 271.855 228.122 271.963 228.122 272.073C228.12 272.293 228.034 272.503 227.884 272.658C227.734 272.813 227.532 272.899 227.321 272.899Z" fill="white"/>
<path d="M227.951 252.748H164.231C163.605 252.748 163.097 253.278 163.097 253.932V269.094C163.097 269.748 163.605 270.278 164.231 270.278H227.951C228.577 270.278 229.085 269.748 229.085 269.094V253.932C229.085 253.278 228.577 252.748 227.951 252.748Z" fill="#00ADB5"/>
<path opacity="0.2" d="M168.659 253.753H166.049V269.414H168.659V253.753Z" fill="black"/>
<path opacity="0.2" d="M174.599 253.678H172.7V269.339H174.599V253.678Z" fill="black"/>
<path opacity="0.2" d="M180.053 253.753H179.108V269.414H180.053V253.753Z" fill="black"/>
<path opacity="0.2" d="M187.415 253.678H186.938V269.339H187.415V253.678Z" fill="black"/>
<path opacity="0.2" d="M223.532 269.339H226.142V253.678H223.532V269.339Z" fill="black"/>
<path opacity="0.2" d="M217.592 269.414H219.491V253.753H217.592V269.414Z" fill="black"/>
<path opacity="0.2" d="M212.129 269.339H213.083V253.678H212.129V269.339Z" fill="black"/>
<path opacity="0.2" d="M204.767 269.414H205.244V253.753H204.767V269.414Z" fill="black"/>
<path opacity="0.2" d="M195.983 269.414H196.217V253.753H195.983V269.414Z" fill="black"/>
<path opacity="0.2" d="M227.321 255.407H165.005C164.9 255.408 164.796 255.388 164.699 255.347C164.602 255.306 164.514 255.245 164.439 255.168C164.365 255.091 164.306 255 164.265 254.899C164.225 254.798 164.204 254.689 164.204 254.58C164.206 254.36 164.292 254.15 164.442 253.995C164.592 253.84 164.794 253.753 165.005 253.753H227.321C227.532 253.753 227.734 253.84 227.884 253.995C228.034 254.15 228.12 254.36 228.122 254.58C228.122 254.689 228.101 254.798 228.061 254.899C228.021 255 227.961 255.091 227.887 255.168C227.812 255.245 227.724 255.306 227.627 255.347C227.53 255.388 227.426 255.408 227.321 255.407Z" fill="white"/>
<path d="M227.951 235.256H164.231C163.605 235.256 163.097 235.786 163.097 236.44V251.602C163.097 252.256 163.605 252.786 164.231 252.786H227.951C228.577 252.786 229.085 252.256 229.085 251.602V236.44C229.085 235.786 228.577 235.256 227.951 235.256Z" fill="#00ADB5"/>
<path opacity="0.2" d="M168.659 236.27H166.049V251.931H168.659V236.27Z" fill="black"/>
<path opacity="0.2" d="M174.599 236.195H172.7V251.856H174.599V236.195Z" fill="black"/>
<path opacity="0.2" d="M180.053 236.27H179.108V251.931H180.053V236.27Z" fill="black"/>
<path opacity="0.2" d="M187.415 236.195H186.938V251.856H187.415V236.195Z" fill="black"/>
<path opacity="0.2" d="M223.532 251.846H226.142V236.186H223.532V251.846Z" fill="black"/>
<path opacity="0.2" d="M217.592 251.921H219.491V236.261H217.592V251.921Z" fill="black"/>
<path opacity="0.2" d="M212.129 251.846H213.083V236.186H212.129V251.846Z" fill="black"/>
<path opacity="0.2" d="M204.767 251.921H205.244V236.261H204.767V251.921Z" fill="black"/>
<path opacity="0.2" d="M195.983 251.921H196.217V236.261H195.983V251.921Z" fill="black"/>
<path opacity="0.2" d="M227.321 237.924H165.005C164.9 237.925 164.796 237.904 164.699 237.863C164.602 237.822 164.514 237.762 164.439 237.685C164.365 237.608 164.306 237.516 164.265 237.416C164.225 237.315 164.204 237.206 164.204 237.097C164.204 236.988 164.225 236.879 164.265 236.778C164.306 236.678 164.365 236.586 164.439 236.509C164.514 236.432 164.602 236.371 164.699 236.33C164.796 236.289 164.9 236.269 165.005 236.27H227.321C227.426 236.269 227.53 236.289 227.627 236.33C227.724 236.371 227.812 236.432 227.887 236.509C227.961 236.586 228.021 236.678 228.061 236.778C228.101 236.879 228.122 236.988 228.122 237.097C228.122 237.206 228.101 237.315 228.061 237.416C228.021 237.516 227.961 237.608 227.887 237.685C227.812 237.762 227.724 237.822 227.627 237.863C227.53 237.904 227.426 237.925 227.321 237.924Z" fill="white"/>
<path d="M228.734 200.092H165.014C164.388 200.092 163.88 200.622 163.88 201.276V216.439C163.88 217.092 164.388 217.622 165.014 217.622H228.734C229.36 217.622 229.868 217.092 229.868 216.439V201.276C229.868 200.622 229.36 200.092 228.734 200.092Z" fill="#00ADB5"/>
<path opacity="0.2" d="M169.442 201.107H166.832V216.768H169.442V201.107Z" fill="black"/>
<path opacity="0.2" d="M175.382 201.032H173.483V216.692H175.382V201.032Z" fill="black"/>
<path opacity="0.2" d="M180.836 201.107H179.891V216.768H180.836V201.107Z" fill="black"/>
<path opacity="0.2" d="M188.198 201.032H187.721V216.692H188.198V201.032Z" fill="black"/>
<path opacity="0.2" d="M224.315 216.683H226.925V201.022H224.315V216.683Z" fill="black"/>
<path opacity="0.2" d="M218.375 216.768H220.274V201.107H218.375V216.768Z" fill="black"/>
<path opacity="0.2" d="M212.921 216.683H213.866V201.022H212.921V216.683Z" fill="black"/>
<path opacity="0.2" d="M205.55 216.768H206.027V201.107H205.55V216.768Z" fill="black"/>
<path opacity="0.2" d="M196.766 216.768H197V201.107H196.766V216.768Z" fill="black"/>
<path opacity="0.2" d="M228.104 202.76H165.788C165.683 202.762 165.579 202.741 165.482 202.7C165.385 202.659 165.297 202.599 165.222 202.522C165.148 202.445 165.089 202.353 165.048 202.252C165.008 202.151 164.987 202.043 164.987 201.934C164.989 201.714 165.075 201.503 165.225 201.349C165.375 201.194 165.577 201.107 165.788 201.107H228.104C228.315 201.107 228.517 201.194 228.667 201.349C228.817 201.503 228.903 201.714 228.905 201.934C228.905 202.043 228.884 202.151 228.844 202.252C228.804 202.353 228.744 202.445 228.67 202.522C228.595 202.599 228.507 202.659 228.41 202.7C228.313 202.741 228.209 202.762 228.104 202.76Z" fill="white"/>
<path d="M229.76 217.773H166.04C165.414 217.773 164.906 218.303 164.906 218.957V234.119C164.906 234.773 165.414 235.303 166.04 235.303H229.76C230.386 235.303 230.894 234.773 230.894 234.119V218.957C230.894 218.303 230.386 217.773 229.76 217.773Z" fill="#00ADB5"/>
<path opacity="0.2" d="M170.459 218.778H167.849V234.438H170.459V218.778Z" fill="black"/>
<path opacity="0.2" d="M176.399 218.703H174.5V234.363H176.399V218.703Z" fill="black"/>
<path opacity="0.2" d="M181.853 218.778H180.908V234.438H181.853V218.778Z" fill="black"/>
<path opacity="0.2" d="M189.215 218.703H188.738V234.363H189.215V218.703Z" fill="black"/>
<path opacity="0.2" d="M225.332 234.363H227.942V218.703H225.332V234.363Z" fill="black"/>
<path opacity="0.2" d="M219.392 234.438H221.291V218.778H219.392V234.438Z" fill="black"/>
<path opacity="0.2" d="M213.938 234.363H214.883V218.703H213.938V234.363Z" fill="black"/>
<path opacity="0.2" d="M206.576 234.438H207.053V218.778H206.576V234.438Z" fill="black"/>
<path opacity="0.2" d="M197.783 234.438H198.017V218.778H197.783V234.438Z" fill="black"/>
<path opacity="0.2" d="M229.13 220.44H166.805C166.7 220.44 166.596 220.419 166.5 220.377C166.403 220.335 166.315 220.273 166.242 220.195C166.168 220.117 166.11 220.025 166.071 219.924C166.031 219.822 166.012 219.714 166.013 219.604C166.013 219.385 166.096 219.175 166.245 219.02C166.393 218.865 166.595 218.778 166.805 218.778H229.13C229.339 218.78 229.539 218.868 229.687 219.022C229.835 219.177 229.92 219.386 229.922 219.604C229.922 219.824 229.839 220.036 229.691 220.192C229.542 220.349 229.341 220.438 229.13 220.44Z" fill="white"/>
<path d="M206.072 189.12L204.056 193.234L202.004 197.415L198.413 196.043L200.213 192.37L202.481 187.748L206.072 189.12Z" fill="#FFC2BC"/>
<path opacity="0.2" d="M206.072 189.12L204.056 193.234L200.213 192.37L202.481 187.748L206.072 189.12Z" fill="black"/>
<path d="M284.498 165.85C284.39 165.85 284.285 165.81 284.204 165.735C284.123 165.661 284.07 165.558 284.057 165.446C283.931 164.506 272.105 72.4405 257.831 32.0443C257.802 31.9854 257.786 31.9208 257.782 31.8548C257.779 31.7887 257.789 31.7227 257.812 31.661C257.835 31.5994 257.87 31.5434 257.915 31.4969C257.96 31.4503 258.014 31.4142 258.073 31.3909C258.133 31.3676 258.196 31.3577 258.259 31.3617C258.322 31.3657 258.384 31.3837 258.44 31.4143C258.496 31.4449 258.546 31.4876 258.585 31.5395C258.624 31.5914 258.653 31.6514 258.668 31.7155C272.987 72.1868 284.831 164.403 284.948 165.342C284.964 165.467 284.932 165.592 284.859 165.693C284.787 165.793 284.68 165.859 284.561 165.878L284.498 165.85Z" fill="#263238"/>
<path d="M261.71 163.2L265.535 163.041L266.282 153.778L262.448 153.937L261.71 163.2Z" fill="#FFC2BC"/>
<path d="M265.895 160.927L261.719 160.786C261.643 160.786 261.568 160.812 261.507 160.859C261.445 160.906 261.4 160.973 261.377 161.049L260.477 164.562C260.455 164.647 260.452 164.736 260.468 164.822C260.484 164.908 260.518 164.99 260.568 165.06C260.618 165.131 260.683 165.189 260.758 165.229C260.832 165.27 260.915 165.292 260.999 165.295C262.511 165.295 264.698 165.295 266.597 165.351C268.811 165.427 270.197 165.351 272.825 165.398C274.391 165.445 274.895 163.811 274.238 163.642C271.268 162.862 269.324 163.003 266.804 161.265C266.536 161.068 266.222 160.951 265.895 160.927Z" fill="#263238"/>
<path opacity="0.2" d="M266.282 153.778L265.895 158.55L262.07 158.719L262.448 153.937L266.282 153.778Z" fill="black"/>
<path d="M260.153 129.643C261.125 131.588 261.197 151.974 261.197 157.15H267.812C268.667 151.786 272.897 122.982 266.912 118.868C260.324 114.33 243.62 115.89 243.62 115.89L242.414 113.344L240.002 108.271L226.178 113.673L223.163 114.837L221.921 115.326H221.813C221.813 115.326 221.813 115.467 221.813 115.711C221.858 116.275 221.984 117.412 222.209 118.83C222.47 120.532 222.837 122.214 223.307 123.866C224.585 128.215 226.853 132.321 230.795 130.949C230.966 130.893 231.137 130.817 231.308 130.742C231.632 130.592 231.983 130.451 232.343 130.31C235.503 129.247 238.771 128.576 242.081 128.309C250.433 127.482 259.415 128.14 260.153 129.643Z" fill="#263238"/>
<path d="M268.109 157.752L260.378 157.968L260.333 155.365L268.829 154.999L268.109 157.752Z" fill="#00ADB5"/>
<path d="M202.67 195.404H198.008C197.932 195.405 197.859 195.432 197.8 195.481C197.741 195.531 197.7 195.6 197.684 195.677L196.892 199.218C196.873 199.304 196.873 199.394 196.892 199.48C196.91 199.565 196.948 199.646 197 199.715C197.053 199.783 197.12 199.839 197.197 199.876C197.273 199.914 197.357 199.933 197.441 199.932C198.944 199.932 200.042 199.81 201.941 199.81C203.102 199.81 206.603 199.942 208.241 199.942C209.879 199.942 210.041 198.279 209.411 198.129C206.477 197.462 204.263 196.532 203.327 195.649C203.239 195.564 203.135 195.499 203.022 195.457C202.909 195.415 202.79 195.397 202.67 195.404Z" fill="#263238"/>
<path d="M236.6 115.289L235.799 118.173C235.376 119.713 234.791 121.808 234.107 124.242L232.397 130.32C229.481 140.607 225.773 153.449 223.721 159.546C219.635 171.646 205.964 193.169 205.964 193.169L199.385 190.651C199.385 190.651 209.483 170.378 212.795 158.109C215.108 149.541 218.735 134.143 221.12 123.8L222.263 118.84C222.65 117.149 222.965 115.768 223.163 114.8C223.361 113.833 223.523 113.213 223.523 113.213L226.178 113.635L236.6 115.289Z" fill="#263238"/>
<path d="M206.675 193.619L198.935 190.651L199.808 188.246L208.061 190.857L206.675 193.619Z" fill="#00ADB5"/>
<path opacity="0.2" d="M242.441 113.334L236.6 120.446L235.799 118.173L234.899 115.692L234.08 124.241L223.334 123.875L221.093 123.8L222.236 118.84C222.011 117.421 221.885 116.284 221.84 115.721L221.912 115.298L223.154 114.809C223.388 113.795 223.514 113.222 223.514 113.222L226.169 113.644L240.02 108.271L242.441 113.334Z" fill="black"/>
<path opacity="0.2" d="M242.117 128.318C238.423 128.577 234.784 129.397 231.317 130.752C231.146 130.827 230.975 130.902 230.804 130.958L231.587 126.937C231.587 126.937 238.328 126.609 242.117 128.318Z" fill="black"/>
<path d="M191.852 117.195L189.503 120.446L187.514 116.491C187.514 116.491 189.773 113.719 191.114 114.997L191.852 117.195Z" fill="#FFC2BC"/>
<path d="M185.912 121.93L185.327 117.881L187.514 116.444L189.503 120.446L185.912 121.93Z" fill="#FFC2BC"/>
<path d="M192.491 116.895L191.834 117.243L190.862 114.669L191.906 114.142L192.491 116.895Z" fill="white"/>
<path d="M218.69 93.4369C218.348 94.0632 217.997 94.6644 217.637 95.2406C216.731 96.7813 215.783 98.2969 214.793 99.7875L213.974 101.018C213.146 102.258 212.273 103.47 211.337 104.682C210.869 105.283 210.392 105.894 209.861 106.495C209.328 107.125 208.76 107.721 208.16 108.28C205.858 110.326 203.325 112.07 200.618 113.475C198.009 114.883 195.301 116.083 192.518 117.064L191.348 114.321C192.518 113.579 193.733 112.818 194.894 112.029C196.055 111.239 197.234 110.46 198.359 109.633C199.484 108.806 200.591 107.97 201.635 107.096C202.662 106.257 203.636 105.35 204.551 104.381C206.279 102.285 207.835 100.042 209.204 97.6738C210.707 95.2406 212.606 90.9755 214.091 88.5424L218.69 93.4369Z" fill="#263238"/>
<path opacity="0.2" d="M217.637 95.2406C216.731 96.7813 215.783 98.297 214.793 99.7876C214.893 97.8117 215.419 95.885 216.332 94.1509C216.874 94.3466 217.335 94.7315 217.637 95.2406Z" fill="black"/>
<path d="M269.243 83.3192L266.633 85.8557L267.002 88.2043C267.956 89.5195 270.152 87.8943 270.665 87.4809C270.747 87.4187 270.834 87.3652 270.926 87.3212L272.312 86.7387C272.557 86.6324 272.76 86.4428 272.889 86.2007C273.018 85.9586 273.065 85.6782 273.023 85.4047L272.753 83.6762C272.728 83.5139 272.672 83.3586 272.588 83.2197C272.504 83.0807 272.394 82.9611 272.264 82.8679C272.135 82.7748 271.988 82.7101 271.834 82.6779C271.68 82.6456 271.521 82.6465 271.367 82.6803L269.81 83.0091C269.596 83.0525 269.399 83.1602 269.243 83.3192Z" fill="#FFC2BC"/>
<path d="M266.03 85.8747L266.75 85.6868L267.164 88.4112L266.03 88.693V85.8747Z" fill="white"/>
<path d="M266.633 88.7114C263.774 89.3431 260.874 89.7513 257.957 89.9327C254.951 90.1762 251.929 90.0311 248.957 89.5005C248.166 89.3427 247.384 89.1356 246.617 88.8805C245.861 88.6362 245.159 88.3732 244.457 88.1008C243.062 87.5653 241.757 86.9922 240.398 86.3628L238.805 85.6112C237.599 85.0288 236.411 84.4275 235.205 83.7981C234.305 83.3472 233.468 82.8586 232.604 82.3701L234.917 76.6301C237.392 77.9266 240.317 79.6833 242.801 80.9704C245.133 82.2785 247.569 83.3724 250.082 84.2396C251.342 84.5877 252.623 84.8482 253.916 85.0194C255.248 85.2167 256.616 85.3388 257.975 85.4515C259.334 85.5643 260.738 85.63 262.124 85.6488C263.51 85.6676 264.932 85.7146 266.3 85.7333L266.633 88.7114Z" fill="#263238"/>
<path opacity="0.2" d="M238.778 85.6113C237.572 85.0288 236.384 84.4276 235.178 83.7982L234.71 81.1301C236.511 82.1028 237.944 83.6819 238.778 85.6113Z" fill="black"/>
<path d="M214.892 88.0257C216.38 91.8452 217.565 95.7852 218.438 99.8064C219.086 102.625 221.381 105.443 221.777 108.027C222.155 110.876 222.696 113.699 223.397 116.482C226.142 114.941 234.449 113.034 240.02 109.905C240.254 86.4945 234.233 77.363 234.233 77.363C232.704 77.769 231.201 78.2742 229.733 78.8755L228.761 79.2983C226.08 80.6189 223.467 82.0832 220.931 83.6855C220.436 83.9955 219.941 84.3149 219.464 84.625C217.016 86.2972 214.892 88.0257 214.892 88.0257Z" fill="#00ADB5"/>
<path opacity="0.7" d="M214.892 88.0257C216.38 91.8452 217.565 95.7852 218.438 99.8064C219.086 102.625 221.381 105.443 221.777 108.027C222.155 110.876 222.696 113.699 223.397 116.482C226.142 114.941 234.449 113.034 240.02 109.905C240.254 86.4945 234.233 77.363 234.233 77.363C232.704 77.769 231.201 78.2742 229.733 78.8755L228.761 79.2983C226.08 80.6189 223.467 82.0832 220.931 83.6855C220.436 83.9955 219.941 84.3149 219.464 84.625C217.016 86.2972 214.892 88.0257 214.892 88.0257Z" fill="white"/>
<path d="M229.643 87.5841L229.985 85.414L228.554 85.3201L227.681 86.3253L229.643 87.5841Z" fill="#00ADB5"/>
<path d="M228.554 85.3204C225.908 86.8611 223.289 85.0668 221.597 83.8361L221.417 83.7046C222.164 82.6242 222.236 80.8862 221.993 79.1389C221.706 77.208 221.211 75.3172 220.517 73.5022L226.574 77.1285C226.574 77.5606 226.502 77.9458 226.484 78.284C226.403 79.1013 226.394 79.6556 226.826 80.0126C227.498 80.4037 228.264 80.5831 229.031 80.5293C229.724 81.3654 230.372 84.2589 228.554 85.3204Z" fill="#FFC2BC"/>
<path d="M219.5 84.653C219.5 84.653 227.123 92.9577 232.703 97.4764C232.703 97.4764 232.289 82.7929 229.769 78.8942L234.953 76.6301C234.953 76.6301 239.939 88.1289 240.65 107.331L242.9 112.169L236.6 118.858L234.575 113.898L233.216 122.127L220.22 123.33L221.813 113.936L214.136 88.5705L219.5 84.653Z" fill="#263238"/>
<path d="M228.959 87.1427C228.959 87.1427 230.759 93.5497 230.633 96.9693L232.955 98.2281L233.369 96.3493C233.369 96.3493 231.326 88.0915 229.445 86.6448L228.959 87.1427Z" fill="#00ADB5"/>
<path d="M219.77 83.9674C219.77 83.9674 229.292 94.8743 232.658 97.4766C232.658 97.4766 231.677 82.7085 229.49 78.9977C229.49 78.9977 230.993 77.9174 234.197 81.1772L232.595 84.2774L235.439 86.3254C235.439 86.3254 234.467 97.3921 232.595 102.644C232.731 101.535 232.791 100.417 232.775 99.2991L221.606 92.8358L222.101 89.2659L217.88 89.078C217.88 89.078 218.348 84.8599 219.77 83.9674Z" fill="#263238"/>
<path opacity="0.2" d="M219.77 83.9674C219.77 83.9674 229.292 94.8743 232.658 97.4766C232.658 97.4766 231.677 82.7085 229.49 78.9977C229.49 78.9977 230.993 77.9174 234.197 81.1772L232.595 84.2774L235.439 86.3254C235.439 86.3254 234.467 97.3921 232.595 102.644C232.731 101.535 232.791 100.417 232.775 99.2991L221.606 92.8358L222.101 89.2659L217.88 89.078C217.88 89.078 218.348 84.8599 219.77 83.9674Z" fill="white"/>
<path d="M258.542 32.711C258.542 32.711 253.142 32.0722 250.127 33.5565C247.112 35.0409 244.079 39.879 239.183 40.3393C234.287 40.7997 233.306 39.1369 233.306 39.1369C233.306 39.1369 237.617 47.1221 245.906 47.0376C254.195 46.953 258.506 45.5251 263.393 48.738C263.411 48.738 259.649 35.2006 258.542 32.711Z" fill="#00ADB5"/>
<path opacity="0.2" d="M226.826 79.9935C226.322 81.6281 225.071 83.9391 222.11 83.8828C221.939 83.8975 221.768 83.8975 221.597 83.8828L221.417 83.7512C222.164 82.6709 222.236 80.9329 221.993 79.1855C223.324 78.2863 224.941 77.9723 226.493 78.3119C226.403 79.0822 226.394 79.6365 226.826 79.9935Z" fill="black"/>
<path d="M228.554 85.3202C228.601 86.4554 228.369 87.5842 227.879 88.5988C226.214 88.3546 221.237 85.7805 220.985 83.6292C221.113 83.1127 221.382 82.6461 221.759 82.2858C223.656 84.0273 226.037 85.0905 228.554 85.3202Z" fill="white"/>
<path d="M228.554 85.32C229.48 85.571 230.343 86.0294 231.083 86.6634C231.551 84.6436 229.616 79.7866 229.121 79.5236C228.314 79.442 227.5 79.5846 226.763 79.937C226.763 79.937 229.481 82.5862 228.554 85.32Z" fill="white"/>
<path d="M215.225 71.4728C215.126 73.0793 216.125 76.0855 217.853 74.5824C219.581 73.0793 215.396 68.7109 215.225 71.4728Z" fill="#263238"/>
<path d="M225.998 70.8621C227.114 74.6199 227.951 76.7994 226.844 79.3829C225.17 83.2722 220.166 83.2628 217.979 79.8902C216.017 76.8652 214.514 71.191 217.475 68.382C218.13 67.7624 218.924 67.3259 219.784 67.1135C220.644 66.9011 221.541 66.9196 222.392 67.1673C223.243 67.415 224.02 67.8838 224.651 68.5299C225.282 69.176 225.745 69.9784 225.998 70.8621Z" fill="#FFC2BC"/>
<path d="M226.574 66.0805C226.214 63.6191 223.415 63.9667 221.777 65.2632V70.1201C222.409 69.8066 223.012 69.4323 223.577 69.0021C223.577 69.0021 224.216 72.6378 226.349 73.6994C229.067 70.9468 229.292 66.7005 226.574 66.0805Z" fill="#263238"/>
<path d="M228.5 73.4079C228.552 74.3953 228.228 75.364 227.6 76.1041C226.745 77.0436 225.647 76.4329 225.332 75.2211C225.017 74.0092 225.143 72.337 226.232 71.8203C226.482 71.7117 226.753 71.6693 227.022 71.6969C227.291 71.7245 227.55 71.8213 227.774 71.9785C227.999 72.1357 228.183 72.3485 228.309 72.598C228.436 72.8474 228.501 73.1256 228.5 73.4079Z" fill="#FFC2BC"/>
<path d="M220.976 73.9624C221.084 74.263 220.976 74.5636 220.823 74.6388C220.67 74.714 220.391 74.5261 220.283 74.2254C220.175 73.9248 220.283 73.6242 220.436 73.549C220.589 73.4739 220.859 73.6618 220.976 73.9624Z" fill="#263238"/>
<path d="M217.7 75.2119C217.817 75.5125 217.745 75.8132 217.556 75.8883C217.367 75.9635 217.124 75.7756 217.016 75.475C216.908 75.1743 216.971 74.8737 217.16 74.7986C217.349 74.7234 217.583 74.9113 217.7 75.2119Z" fill="#263238"/>
<path d="M218.789 74.9673C218.753 75.9925 218.581 77.0075 218.276 77.9829C218.526 78.0481 218.786 78.0567 219.039 78.0081C219.292 77.9595 219.532 77.8548 219.743 77.7011L218.789 74.9673Z" fill="#ED893E"/>
<path d="M221.714 78.265L221.345 78.4341C221.322 78.4428 221.297 78.4418 221.275 78.4312C221.253 78.4206 221.236 78.4014 221.228 78.3777C221.22 78.354 221.221 78.3279 221.231 78.305C221.241 78.2821 221.259 78.2643 221.282 78.2556C221.644 78.1267 221.972 77.9108 222.239 77.6252C222.507 77.3396 222.706 76.9924 222.821 76.6115C222.823 76.5991 222.828 76.5872 222.834 76.5766C222.841 76.566 222.849 76.557 222.86 76.55C222.87 76.5429 222.881 76.5381 222.893 76.5358C222.905 76.5335 222.917 76.5337 222.929 76.5364C222.941 76.5384 222.952 76.5431 222.962 76.5502C222.972 76.5572 222.98 76.5665 222.986 76.5772C222.992 76.588 222.996 76.6001 222.997 76.6125C222.998 76.6249 222.996 76.6374 222.992 76.6491C222.896 76.9952 222.733 77.3172 222.513 77.5951C222.293 77.873 222.021 78.1009 221.714 78.265Z" fill="#263238"/>
<path d="M221.588 72.4779C221.559 72.4943 221.526 72.5029 221.493 72.5029C221.46 72.5029 221.428 72.4943 221.399 72.4779C221.21 72.3436 220.993 72.2582 220.766 72.2288C220.539 72.1994 220.309 72.2268 220.094 72.3088C220.05 72.3287 220 72.3295 219.955 72.311C219.91 72.2925 219.875 72.2563 219.855 72.2102C219.836 72.1641 219.836 72.1119 219.853 72.0652C219.871 72.0186 219.906 71.9811 219.95 71.9612C220.22 71.8539 220.51 71.8158 220.797 71.8501C221.083 71.8845 221.358 71.9902 221.597 72.1585C221.636 72.1871 221.664 72.2301 221.674 72.2789C221.684 72.3277 221.676 72.3787 221.651 72.4215C221.634 72.4446 221.612 72.4637 221.588 72.4779Z" fill="#263238"/>
<path d="M215.9 74.5825C215.865 74.5962 215.827 74.5962 215.792 74.5825C215.768 74.5801 215.745 74.5729 215.724 74.5612C215.703 74.5495 215.685 74.5336 215.67 74.5144C215.655 74.4952 215.643 74.473 215.637 74.4492C215.63 74.4255 215.628 74.4005 215.63 74.3758C215.656 74.0739 215.751 73.7829 215.908 73.5277C216.064 73.2725 216.278 73.0606 216.53 72.9103C216.551 72.899 216.574 72.8922 216.598 72.8904C216.622 72.8886 216.646 72.8917 216.668 72.8995C216.691 72.9074 216.712 72.9199 216.73 72.9362C216.748 72.9526 216.762 72.9725 216.773 72.9948C216.795 73.0385 216.8 73.0896 216.787 73.1371C216.774 73.1846 216.743 73.2246 216.701 73.2485C216.506 73.3705 216.343 73.5405 216.225 73.7435C216.107 73.9465 216.039 74.1765 216.026 74.4134C216.024 74.4516 216.011 74.4883 215.988 74.5185C215.966 74.5487 215.935 74.571 215.9 74.5825Z" fill="#263238"/>
<path d="M223.496 69.03C223.496 69.03 221.219 71.4819 218.996 71.3598C219.595 71.0753 220.141 70.6807 220.607 70.1949C220.607 70.1949 216.26 72.1583 214.118 71.1343C211.976 70.1103 212.219 69.0018 212.219 69.0018C212.219 69.0018 212.462 69.65 214.541 69.5842C214.541 69.5842 212.741 68.3536 213.47 66.6156C213.574 66.8236 213.727 67.0007 213.914 67.1305C214.101 67.2602 214.317 67.3384 214.541 67.3577C215.246 66.224 216.193 65.2761 217.308 64.5883C218.423 63.9005 219.675 63.4915 220.967 63.3933C225.638 62.839 226.583 64.7649 226.79 66.2116C226.997 67.6584 223.496 69.03 223.496 69.03Z" fill="#263238"/>
<path d="M148.706 322.689H84.9859C84.3596 322.689 83.8519 323.219 83.8519 323.873V339.036C83.8519 339.689 84.3596 340.219 84.9859 340.219H148.706C149.332 340.219 149.84 339.689 149.84 339.036V323.873C149.84 323.219 149.332 322.689 148.706 322.689Z" fill="#00ADB5"/>
<path opacity="0.2" d="M89.414 323.704H86.804V339.365H89.414V323.704Z" fill="black"/>
<path opacity="0.2" d="M95.345 323.629H93.446V339.289H95.345V323.629Z" fill="black"/>
<path opacity="0.2" d="M100.799 323.704H99.8541V339.365H100.799V323.704Z" fill="black"/>
<path opacity="0.2" d="M108.161 323.629H107.684V339.289H108.161V323.629Z" fill="black"/>
<path opacity="0.2" d="M144.278 339.289H146.888V323.629H144.278V339.289Z" fill="black"/>
<path opacity="0.2" d="M138.347 339.365H140.246V323.704H138.347V339.365Z" fill="black"/>
<path opacity="0.2" d="M132.884 339.289H133.829V323.629H132.884V339.289Z" fill="black"/>
<path opacity="0.2" d="M125.522 339.365H125.999V323.704H125.522V339.365Z" fill="black"/>
<path opacity="0.2" d="M116.729 339.365H116.963V323.704H116.729V339.365Z" fill="black"/>
<path opacity="0.2" d="M148.076 325.357H85.7509C85.6466 325.359 85.543 325.338 85.4464 325.297C85.3498 325.256 85.262 325.195 85.1882 325.118C85.1144 325.041 85.0561 324.949 85.0167 324.849C84.9774 324.748 84.9577 324.64 84.9589 324.531C84.9589 324.311 85.0424 324.101 85.1909 323.946C85.3394 323.791 85.5409 323.704 85.7509 323.704H148.076C148.286 323.704 148.487 323.791 148.636 323.946C148.784 324.101 148.868 324.311 148.868 324.531C148.869 324.64 148.849 324.748 148.81 324.849C148.771 324.949 148.712 325.041 148.639 325.118C148.565 325.195 148.477 325.256 148.38 325.297C148.284 325.338 148.18 325.359 148.076 325.357Z" fill="white"/>
<path d="M149.606 305.206H85.886C85.2597 305.206 84.752 305.736 84.752 306.39V321.553C84.752 322.206 85.2597 322.736 85.886 322.736H149.606C150.232 322.736 150.74 322.206 150.74 321.553V306.39C150.74 305.736 150.232 305.206 149.606 305.206Z" fill="#00ADB5"/>
<path opacity="0.2" d="M90.314 306.221H87.704V321.882H90.314V306.221Z" fill="black"/>
<path opacity="0.2" d="M96.2449 306.146H94.3459V321.806H96.2449V306.146Z" fill="black"/>
<path opacity="0.2" d="M101.699 306.221H100.754V321.882H101.699V306.221Z" fill="black"/>
<path opacity="0.2" d="M109.07 306.146H108.593V321.806H109.07V306.146Z" fill="black"/>
<path opacity="0.2" d="M145.178 321.797H147.788V306.136H145.178V321.797Z" fill="black"/>
<path opacity="0.2" d="M139.238 321.872H141.137V306.212H139.238V321.872Z" fill="black"/>
<path opacity="0.2" d="M133.784 321.797H134.729V306.136H133.784V321.797Z" fill="black"/>
<path opacity="0.2" d="M126.422 321.872H126.899V306.212H126.422V321.872Z" fill="black"/>
<path opacity="0.2" d="M117.629 321.872H117.863V306.212H117.629V321.872Z" fill="black"/>
<path opacity="0.2" d="M148.976 307.874H86.6511C86.441 307.874 86.2396 307.787 86.091 307.632C85.9425 307.477 85.8591 307.267 85.8591 307.048C85.8579 306.939 85.8775 306.831 85.9169 306.73C85.9563 306.629 86.0146 306.537 86.0883 306.46C86.1621 306.383 86.2499 306.322 86.3466 306.281C86.4432 306.24 86.5467 306.22 86.6511 306.221H148.976C149.08 306.22 149.184 306.24 149.281 306.281C149.377 306.322 149.465 306.383 149.539 306.46C149.613 306.537 149.671 306.629 149.71 306.73C149.75 306.831 149.769 306.939 149.768 307.048C149.768 307.267 149.685 307.477 149.536 307.632C149.388 307.787 149.186 307.874 148.976 307.874Z" fill="white"/>
<path d="M146.006 287.723H82.286C81.6597 287.723 81.152 288.253 81.152 288.907V304.07C81.152 304.723 81.6597 305.253 82.286 305.253H146.006C146.632 305.253 147.14 304.723 147.14 304.07V288.907C147.14 288.253 146.632 287.723 146.006 287.723Z" fill="#00ADB5"/>
<path opacity="0.2" d="M86.705 288.728H84.095V304.389H86.705V288.728Z" fill="black"/>
<path opacity="0.2" d="M92.6451 288.653H90.7461V304.314H92.6451V288.653Z" fill="black"/>
<path opacity="0.2" d="M98.0991 288.728H97.1541V304.389H98.0991V288.728Z" fill="black"/>
<path opacity="0.2" d="M105.461 288.653H104.984V304.314H105.461V288.653Z" fill="black"/>
<path opacity="0.2" d="M141.569 304.314H144.179V288.653H141.569V304.314Z" fill="black"/>
<path opacity="0.2" d="M135.647 304.389H137.546V288.728H135.647V304.389Z" fill="black"/>
<path opacity="0.2" d="M130.184 304.314H131.129V288.653H130.184V304.314Z" fill="black"/>
<path opacity="0.2" d="M122.822 304.389H123.299V288.728H122.822V304.389Z" fill="black"/>
<path opacity="0.2" d="M114.029 304.389H114.263V288.728H114.029V304.389Z" fill="black"/>
<path opacity="0.2" d="M145.376 290.382H83.051C82.9466 290.383 82.8431 290.362 82.7465 290.321C82.6498 290.28 82.562 290.219 82.4882 290.142C82.4145 290.065 82.3562 289.974 82.3168 289.873C82.2774 289.772 82.2578 289.664 82.259 289.555C82.259 289.336 82.3424 289.126 82.4909 288.97C82.6395 288.815 82.8409 288.728 83.051 288.728H145.376C145.585 288.731 145.785 288.819 145.933 288.973C146.081 289.128 146.166 289.337 146.168 289.555C146.168 289.774 146.085 289.985 145.936 290.14C145.787 290.295 145.586 290.382 145.376 290.382Z" fill="white"/>
<path d="M110.114 276.13L108.305 280.781L106.937 284.294L103.499 283.017L104.732 279.86L106.676 274.843L110.114 276.13Z" fill="#E4897B"/>
<path d="M183.59 251.235L180.665 253.499L179.594 251.019L177.11 245.288L180.035 243.015L182.384 248.445L183.59 251.235Z" fill="#E4897B"/>
<path opacity="0.2" d="M106.676 274.843L110.114 276.13L108.305 280.781L104.732 279.86L106.676 274.843Z" fill="black"/>
<path opacity="0.2" d="M182.384 248.445L179.594 251.019L177.11 245.288L180.035 243.015L182.384 248.445Z" fill="black"/>
<path d="M135.917 147.38C136.016 147.671 136.241 147.849 136.421 147.784C136.601 147.718 136.673 147.427 136.574 147.135C136.475 146.844 136.25 146.666 136.07 146.731C135.89 146.797 135.8 147.088 135.917 147.38Z" fill="#263238"/>
<path d="M136.214 147.859C136.843 148.62 137.57 149.287 138.374 149.841C138.235 150.054 138.052 150.232 137.839 150.361C137.625 150.491 137.387 150.57 137.141 150.592L136.214 147.859Z" fill="#DE5753"/>
<path d="M134.36 146.149C134.319 146.161 134.275 146.161 134.234 146.149C134.204 146.116 134.188 146.072 134.188 146.027C134.188 145.981 134.204 145.938 134.234 145.905C134.385 145.667 134.587 145.469 134.825 145.329C135.063 145.188 135.329 145.109 135.602 145.097C135.648 145.099 135.692 145.12 135.724 145.155C135.755 145.19 135.773 145.236 135.773 145.285C135.773 145.309 135.768 145.333 135.759 145.355C135.75 145.377 135.737 145.398 135.72 145.414C135.703 145.431 135.683 145.444 135.661 145.452C135.639 145.461 135.616 145.464 135.593 145.463C135.376 145.473 135.165 145.537 134.977 145.649C134.789 145.762 134.63 145.921 134.513 146.111C134.491 146.128 134.467 146.14 134.44 146.147C134.414 146.153 134.387 146.154 134.36 146.149Z" fill="#263238"/>
<path d="M129.257 152.114C129.302 154.932 128.96 160.062 126.809 161.556C126.809 161.556 127.052 164.468 131.93 165.37C137.33 166.375 134.972 163.068 134.972 163.068C132.173 161.8 132.632 159.545 133.505 157.507L129.257 152.114Z" fill="#E4897B"/>
<path d="M126.467 150.17C127.871 153.646 128.528 155.806 130.868 156.953C134.378 158.738 138.068 155.562 137.645 151.72C137.303 148.253 135.053 143.152 131.237 142.964C130.397 142.919 129.561 143.099 128.807 143.487C128.052 143.875 127.406 144.457 126.928 145.179C126.45 145.901 126.157 146.738 126.076 147.612C125.995 148.485 126.13 149.366 126.467 150.17Z" fill="#E4897B"/>
<path d="M128.843 155.825C130.427 156.492 135.404 152.772 133.703 148.488C133.703 148.488 135.404 145.623 134.792 142.851C134.18 140.08 132.182 139.244 130.292 140.146C128.618 140.935 128.798 141.921 128.798 141.921C128.798 141.921 120.698 144.138 122.912 147.38C120.059 151.663 126.854 155.008 128.843 155.825Z" fill="#263238"/>
<path d="M132.371 149.465C132.728 150.326 133.344 151.042 134.126 151.504C135.17 152.096 135.773 151.269 135.557 150.17C135.341 149.071 134.594 147.68 133.514 147.539C132.434 147.398 131.957 148.432 132.371 149.465Z" fill="#E4897B"/>
<path d="M125.513 161.584C125.135 160.795 124.721 159.893 125.639 159.648C126.557 159.404 133.073 159.01 134.936 159.648C134.324 160.71 135.269 162.063 135.269 162.063L125.513 161.584Z" fill="#00ADB5"/>
<path opacity="0.5" d="M125.513 161.584C125.135 160.795 124.721 159.893 125.639 159.648C126.557 159.404 133.073 159.01 134.936 159.648C134.324 160.71 135.269 162.063 135.269 162.063L125.513 161.584Z" fill="#FAFAFA"/>
<path d="M107.171 282.772H103.193C103.121 282.773 103.051 282.799 102.995 282.847C102.94 282.895 102.901 282.962 102.887 283.035L102.167 286.417C102.147 286.499 102.146 286.584 102.164 286.666C102.181 286.749 102.216 286.825 102.267 286.891C102.317 286.956 102.382 287.009 102.455 287.044C102.528 287.079 102.608 287.096 102.689 287.094C104.12 287.094 106.199 286.981 107.999 286.981C110.114 286.981 111.932 287.103 114.407 287.103C115.91 287.103 116.324 285.525 115.694 285.384C112.841 284.726 110.519 284.661 108.053 283.073C107.79 282.891 107.486 282.787 107.171 282.772Z" fill="#263238"/>
<path d="M132.911 195.169C132.911 195.169 131.777 203.145 130.4 212.314C129.797 216.241 129.149 220.384 128.51 224.217C127.799 228.51 127.106 232.399 126.53 235.143C124.019 247.074 110.69 279.954 110.69 279.954L104.165 278.479C104.165 278.479 113.489 252.898 115.568 236.204C117.179 223.399 120.338 195.16 120.338 195.16L132.911 195.169Z" fill="#263238"/>
<path d="M112.247 277.671L111.032 280.133L103.688 278.47L104.3 276.196L112.247 277.671Z" fill="#00ADB5"/>
<path opacity="0.3" d="M112.247 277.671L111.032 280.133L103.688 278.47L104.3 276.196L112.247 277.671Z" fill="black"/>
<path opacity="0.2" d="M130.4 212.314C129.797 216.241 129.149 220.384 128.51 224.217C126.71 216.635 127.295 212.098 127.295 212.098L130.4 212.314Z" fill="black"/>
<path d="M122.246 168.545C120.491 170.274 118.646 172.106 116.972 173.938C115.28 175.731 113.676 177.612 112.166 179.574C111.522 180.547 110.941 181.564 110.429 182.618C109.871 183.755 109.304 184.91 108.764 186.094L105.461 193.215L102.869 192.276C103.427 189.636 104.138 187.062 104.912 184.478C105.317 183.191 105.749 181.904 106.226 180.617C106.729 179.233 107.346 177.897 108.071 176.624C109.533 174.295 111.177 172.096 112.985 170.048C114.733 168 116.597 166.061 118.565 164.243L122.246 168.545Z" fill="#DC897C"/>
<path d="M102.653 199.227L103.976 196.775L99.944 195.498C99.7166 196.065 99.6056 196.676 99.618 197.291C99.6304 197.906 99.766 198.511 100.016 199.068L102.653 199.227Z" fill="#E4897B"/>
<path d="M105.452 193.177L102.869 192.304L99.944 195.498L103.976 196.775L105.452 193.177Z" fill="#E4897B"/>
<path d="M183.545 250.719L180.26 253.264C180.203 253.311 180.162 253.375 180.144 253.449C180.126 253.522 180.132 253.599 180.161 253.668L181.511 256.834C181.543 256.912 181.592 256.981 181.653 257.035C181.715 257.09 181.788 257.128 181.867 257.148C181.945 257.169 182.027 257.169 182.106 257.151C182.185 257.132 182.258 257.094 182.321 257.041C183.455 256.102 183.968 255.632 185.408 254.514C186.308 253.828 188.36 252.316 189.593 251.367C190.826 250.418 190.079 249.018 189.494 249.3C186.875 250.531 185.363 250.662 184.157 250.54C183.939 250.52 183.721 250.583 183.545 250.719Z" fill="#263238"/>
<path d="M120.68 161.941C117.179 161.716 112.013 169.616 112.013 169.616L117.107 176.878C119.343 175.517 121.203 173.575 122.507 171.242C124.928 166.976 124.253 162.176 120.68 161.941Z" fill="#00ADB5"/>
<path opacity="0.6" d="M120.68 161.941C117.179 161.716 112.013 169.616 112.013 169.616L117.107 176.878C119.343 175.517 121.203 173.575 122.507 171.242C124.928 166.976 124.253 162.176 120.68 161.941Z" fill="#FAFAFA"/>
<path opacity="0.2" d="M121.67 169.231C119.375 170.518 117.845 173.684 116.882 176.549L117.107 176.878C119.342 175.517 121.203 173.575 122.507 171.241C122.651 170.997 122.786 170.734 122.912 170.481L121.67 169.231Z" fill="black"/>
<path d="M141.398 161.358C141.398 161.358 143.495 166.864 139.823 195.178H120.338C120.203 192.05 122.084 176.812 119.195 162.101C121.35 161.664 123.529 161.375 125.72 161.236C128.213 161.114 136.52 159.357 138.716 159.573C141.605 159.836 141.398 161.358 141.398 161.358Z" fill="#00ADB5"/>
<path opacity="0.6" d="M141.857 173.844C141.623 178.851 141.038 185.746 139.823 195.169H120.338C120.203 192.041 122.084 176.803 119.195 162.091C121.35 161.655 123.529 161.366 125.72 161.227C128.213 161.105 136.52 159.348 138.716 159.564C141.605 159.836 141.416 161.358 141.416 161.358C141.416 161.358 141.857 162.514 141.974 166.488C142.019 168.301 142.01 170.696 141.857 173.844Z" fill="#FAFAFA"/>
<path d="M139.031 193.525L142.883 202.919C142.883 202.919 161.54 205.362 166.832 212.06C172.124 218.758 182.132 245.937 182.132 245.937L177.146 250.361C177.146 250.361 162.836 222.892 158.831 219.576C154.826 216.26 132.029 216.269 126.935 214.287C121.841 212.304 120.374 195.141 120.374 195.141L139.031 193.525Z" fill="#263238"/>
<path d="M176.084 249.845L182.096 245.035L182.87 246.585L177.11 251.329L176.084 249.845Z" fill="#00ADB5"/>
<path opacity="0.3" d="M176.084 249.845L182.096 245.035L182.87 246.585L177.11 251.329L176.084 249.845Z" fill="black"/>
<path d="M134.9 144.204C134.9 144.204 134.675 138.624 131.849 138.436C129.023 138.248 126.8 140.916 126.8 140.916C126.526 140.56 126.18 140.272 125.786 140.074C125.392 139.875 124.96 139.772 124.523 139.77C122.921 139.676 120.131 142.522 120.131 142.522C120.131 142.522 123.614 140.286 125.081 141.31C125.081 141.31 121.13 142.457 120.131 145.068C119.703 146.395 118.995 147.605 118.061 148.61H120.131L118.772 151.024C118.772 151.024 121.634 153.908 123.794 153.429L123.101 154.801C123.101 154.801 127.34 156.417 129.068 155.919C130.796 155.421 129.158 146.44 129.158 146.44L134.9 144.204Z" fill="#263238"/>
<path opacity="0.2" d="M141.857 173.844C138.32 171.335 138.374 165.558 138.374 165.558L141.974 166.497C142.019 168.301 142.01 170.697 141.857 173.844Z" fill="black"/>
<path d="M109.232 202.365L85.193 198.147L78.974 217.462L82.952 225.006L109.196 228.613L114.515 207.57L109.232 202.365Z" fill="#00ADB5"/>
<path opacity="0.4" d="M78.974 217.462L80.522 220.402L80.873 221.051L82.952 225.006L109.196 228.613L114.515 207.57L112.256 205.352L111.563 204.667L109.241 202.365L85.193 198.147L78.974 217.462Z" fill="black"/>
<path opacity="0.2" d="M114.515 207.57L90.7189 203.708L85.1929 198.147L109.241 202.365L114.515 207.57Z" fill="white"/>
<path opacity="0.1" d="M90.719 203.708L82.952 225.006L78.974 217.462L85.193 198.147L90.719 203.708Z" fill="white"/>
<path d="M80.522 220.403L80.873 221.051L88.064 201.107L112.256 205.353L111.563 204.667L87.632 200.665L80.522 220.403Z" fill="#263238"/>
<path d="M104.138 203.511L102.923 202.337L96.8661 201.191L97.9281 202.469L104.138 203.511Z" fill="#263238"/>
<path d="M106.478 203.981C106.478 203.981 106.757 197.349 106.586 196.907C106.415 196.466 97.892 195.028 97.253 194.887C96.614 194.746 93.806 201.21 93.806 201.21L94.292 201.989L95.903 202.215C95.903 202.215 97.946 196.644 98.153 196.503C100.488 196.762 102.808 197.158 105.101 197.687C105.281 197.837 104.579 202.901 104.579 202.901L105.128 203.727L106.478 203.981Z" fill="#263238"/>
<path d="M80.603 214.522L82.403 216.936L82.574 216.457L83.933 212.699L84.095 212.248L84.383 211.44C84.383 211.44 83.87 212.042 83.168 212.727C82.4401 213.503 81.5669 214.114 80.603 214.522Z" fill="#00ADB5"/>
<path opacity="0.2" d="M81.188 214.7L82.529 216.457L83.888 212.699L84.05 212.248C83.3041 213.299 82.321 214.141 81.188 214.7Z" fill="white"/>
<path opacity="0.2" d="M83.123 212.718H83.888L84.338 211.459C84.338 211.459 83.825 212.032 83.123 212.718Z" fill="black"/>
<path d="M79.9459 209.796L79.6129 213.197C80.958 212.555 82.4555 212.346 83.9149 212.596L84.0859 212.126L85.1299 209.204L85.2469 208.904C83.4357 208.718 81.6092 209.025 79.9459 209.796Z" fill="#00ADB5"/>
<path d="M83.3658 204.028C83.9947 205.307 84.8218 206.469 85.8138 207.466L85.9398 207.109L86.2638 206.17L86.8038 204.62L87.0648 203.868L87.1368 203.652C86.7057 202.964 86.3324 202.238 86.0208 201.482L83.3658 204.028Z" fill="#00ADB5"/>
<path d="M88.874 199.65C89.2023 200.187 89.4567 200.769 89.63 201.379L90.008 201.445L90.53 201.529L91.367 201.689L92.168 201.83L92.447 201.877C92.4328 200.572 91.966 199.317 91.133 198.344L88.874 199.65Z" fill="#00ADB5"/>
<path opacity="0.2" d="M89.3781 199.744C89.6467 200.285 89.8579 200.855 90.0081 201.444L90.5301 201.529C90.486 201.457 90.4575 201.376 90.4466 201.292C90.4357 201.208 90.4427 201.122 90.4671 201.04C90.4904 200.966 90.5277 200.898 90.5766 200.838C90.6255 200.779 90.6852 200.731 90.7521 200.696C90.819 200.661 90.8919 200.64 90.9666 200.635C91.0412 200.63 91.1162 200.64 91.1871 200.665C91.2578 200.688 91.3234 200.726 91.3799 200.776C91.4365 200.826 91.4829 200.888 91.5164 200.957C91.5499 201.026 91.5699 201.101 91.5752 201.179C91.5804 201.256 91.5709 201.333 91.5471 201.407C91.5142 201.517 91.4517 201.615 91.3671 201.689L92.168 201.83C92.1206 200.724 91.7535 199.66 91.1151 198.776L89.3781 199.744Z" fill="white"/>
<path opacity="0.2" d="M80.162 209.928L79.955 212.68C81.2837 212.214 82.6874 212.025 84.086 212.126L85.13 209.204C83.4419 208.991 81.7296 209.24 80.162 209.928ZM83.051 209.702C83.1591 209.663 83.2743 209.65 83.3879 209.665C83.5014 209.68 83.6102 209.721 83.7059 209.787C83.8016 209.852 83.8815 209.94 83.9396 210.043C83.9977 210.146 84.0323 210.261 84.0409 210.38C84.0494 210.5 84.0317 210.619 83.9889 210.73C83.9462 210.841 83.8797 210.94 83.7945 211.02C83.7092 211.099 83.6076 211.157 83.4974 211.19C83.3872 211.222 83.2714 211.227 83.159 211.205C83.0509 211.244 82.9356 211.257 82.822 211.242C82.7085 211.228 82.5997 211.186 82.504 211.121C82.4084 211.055 82.3284 210.967 82.2703 210.864C82.2123 210.762 82.1776 210.646 82.169 210.527C82.1605 210.408 82.1782 210.288 82.221 210.178C82.2637 210.067 82.3302 209.968 82.4155 209.888C82.5007 209.808 82.6023 209.75 82.7125 209.718C82.8227 209.686 82.9385 209.68 83.051 209.702Z" fill="white"/>
<path opacity="0.2" d="M83.825 204.178C84.4167 205.239 85.1266 206.223 85.94 207.109L86.264 206.17C86.08 206.092 85.932 205.943 85.8514 205.754C85.7708 205.564 85.7639 205.35 85.832 205.155C85.8886 204.962 86.0123 204.798 86.1789 204.696C86.3455 204.593 86.5428 204.559 86.732 204.601L86.993 203.849C86.5357 203.321 86.1648 202.718 85.895 202.064L83.825 204.178Z" fill="white"/>
<path d="M164.357 143.603L165.743 141.189L168.803 144.214C168.443 144.7 167.989 145.102 167.472 145.395C166.954 145.688 166.384 145.865 165.797 145.914L164.357 143.603Z" fill="#E4897B"/>
<path d="M167.885 137.957L170.054 141.142L168.803 144.213L165.743 141.188L167.885 137.957Z" fill="#E4897B"/>
<path d="M140.408 160.043C142.899 159.51 145.362 158.845 147.788 158.052C150.126 157.328 152.369 156.306 154.466 155.008C154.657 154.883 154.841 154.745 155.015 154.595L155.636 153.993C156.068 153.561 156.536 153.054 156.941 152.603C157.796 151.607 158.678 150.583 159.524 149.531C161.261 147.445 162.953 145.275 164.699 143.161L166.976 144.74C165.725 147.286 164.339 149.709 162.872 152.124C162.125 153.317 161.36 154.519 160.514 155.694C160.091 156.276 159.614 156.868 159.164 157.46C158.93 157.751 158.633 158.052 158.372 158.352C158.05 158.685 157.711 158.999 157.355 159.292C154.965 161.081 152.336 162.493 149.552 163.482C146.89 164.487 144.15 165.251 141.362 165.765L140.408 160.043Z" fill="#DC897C"/>
<path d="M139.247 168.254C143.036 171.683 151.361 165.802 151.361 165.802L148.04 157.244C144.985 157.616 141.971 158.292 139.04 159.263C133.775 161.133 136.349 165.642 139.247 168.254Z" fill="#00ADB5"/>
<path opacity="0.6" d="M139.247 168.254C143.036 171.683 151.361 165.802 151.361 165.802L148.04 157.244C144.985 157.616 141.971 158.292 139.04 159.263C133.775 161.133 136.349 165.642 139.247 168.254Z" fill="#FAFAFA"/>
</svg>
