<svg width="21" height="20" viewBox="0 0 21 20" fill="none" xmlns="http://www.w3.org/2000/svg">
<path d="M18.84 4.82006L13.08 0.79006C11.51 -0.30994 9.10002 -0.24994 7.59002 0.92006L2.58002 4.83006C1.58002 5.61006 0.790024 7.21006 0.790024 8.47006V15.3701C0.790024 17.9201 2.86002 20.0001 5.41002 20.0001H16.19C18.74 20.0001 20.81 17.9301 20.81 15.3801V8.60006C20.81 7.25006 19.94 5.59006 18.84 4.82006ZM11.55 16.0001C11.55 16.4101 11.21 16.7501 10.8 16.7501C10.39 16.7501 10.05 16.4101 10.05 16.0001V13.0001C10.05 12.5901 10.39 12.2501 10.8 12.2501C11.21 12.2501 11.55 12.5901 11.55 13.0001V16.0001Z" fill="#00ADB5"/>
</svg>
